<?xml version="1.0" encoding="utf-8"?>
<!-- Generator: Adobe Illustrator 26.0.1, SVG Export Plug-In . SVG Version: 6.00 Build 0)  -->
<svg version="1.1" id="图层_1" xmlns="http://www.w3.org/2000/svg" xmlns:xlink="http://www.w3.org/1999/xlink" x="0px" y="0px"
	 viewBox="0 0 640.9 117.6" style="enable-background:new 0 0 640.9 117.6;" xml:space="preserve">
<style type="text/css">
	.st0{fill:#FFFFFF;}
</style>
<path class="st0" d="M99.9,39.7H36c-8.5,0-15.4,6.8-15.4,15.4c0,8.5,6.9,15.4,15.4,15.4h63.9v20.6H36c-19.9,0-36-16.1-36-36
	s16.1-36,36-36h63.9L99.9,39.7z"/>
<path class="st0" d="M131.8,48.7l12.7,2l-32.6,54.2l8.5-43.3l-12.9-2l32.8-54.2L131.8,48.7z"/>
<path class="st0" d="M213.2,47.7c0-7.3,0-14.7,0-22c0-0.9,0.2-1.1,1.1-1.1c2.8,0.1,5.6,0,8.4,0c0.7,0,1,0.1,1,0.9
	c0,13.9,0,27.8,0,41.6c0,5.1-0.7,10.1-3.2,14.6c-3.6,6.8-9.3,10.9-16.9,12.2c-5.1,0.9-10.2,0.7-15.1-1.2c-2.9-1.1-5.3-3-7.5-5.3
	c-2.4-2.5-4.5-5.1-6-8.3c-1.5-3.4-2.3-7.1-2.4-10.8c-0.1-14.3,0-28.5,0-42.8c0-0.7,0.1-1,0.9-1c2.8,0.1,5.7,0.1,8.5,0
	c0.8,0,1,0.2,1,1c0,14.1,0,28.2,0,42.3c0,3,0.4,5.9,1.7,8.6c2.6,5.4,7.1,7.8,12.9,8c5,0.1,9.3-1.3,12.4-5.5c2.1-2.8,3-6,3.1-9.4
	C213.1,62.3,213.1,55,213.2,47.7L213.2,47.7z"/>
<path class="st0" d="M325.2,94.5c-12.2,0.1-21.5-6.9-24.8-17.7c-0.5-1.7-0.5-1.7,1.1-2.4c2.4-0.9,4.8-1.9,7.2-2.8
	c0.6-0.3,0.9-0.3,1.1,0.5c0.9,3,2.4,5.8,4.6,8.1c5.7,6,14.3,4.9,18.5,1.7c4.9-3.7,4.9-11.2-0.1-15c-2.8-2.1-6-3.2-9.2-4.3
	c-5.3-1.8-10.4-3.9-14.9-7.4c-5.9-4.6-8.1-12.2-5.5-19c1.1-3,3.1-5.2,5.4-7.4c3-2.8,6.5-4.7,10.6-5.4c8.9-1.4,18.3,1.5,23.5,9.3
	c0.9,1.5,1.7,3.1,2.2,4.7c0.2,0.5,0,0.6-0.4,0.7c-2.8,1.1-5.6,2.1-8.3,3.3c-0.5,0.2-0.7,0.1-0.9-0.4c-3.4-9.6-14.8-9.6-20-5
	c-3.5,3.1-3.4,8.7,0.5,11.4c2.8,1.9,6,3.1,9.2,4.3c4.4,1.6,8.9,3.2,12.9,5.7c8.9,5.8,11.9,17.6,6.7,26.5c-2.3,3.9-5.9,6.4-10,8.2
	C331.4,93.9,327.9,94.5,325.2,94.5z"/>
<path class="st0" d="M575.3,50.1c6.5-6.5,15.2-7.3,22.4-4.2c4.9,2.2,7.6,6.2,8.8,11.3c0.4,2,0.7,4,0.6,6c0,9.5,0,19,0,28.6
	c0,1.1-0.3,1.2-1.3,1.2c-2.7-0.1-5.4-0.1-8.1,0c-0.8,0-1-0.2-1-1c0-8.9,0-17.8,0-26.7c0-1.8-0.1-3.6-0.7-5.3c-1.5-4.6-5-6.3-9.5-6.2
	c-6,0.1-9.7,5.5-10.7,9.7c-0.3,1.4-0.5,2.8-0.5,4.2c0,8.1,0,16.2,0,24.4c0,0.7-0.1,1-1,1c-2.9-0.1-5.8,0-8.7,0
	c-0.7,0-0.9-0.2-0.9-0.9c0-22.2,0-44.4,0-66.6c0-0.7,0.2-0.9,0.9-0.9c2.9,0,5.8,0,8.7,0c0.7,0,1,0.2,0.9,0.9
	c-0.1,8.1,0.2,16.2-0.2,24.2C575.3,49.9,575.3,50,575.3,50.1z"/>
<path class="st0" d="M242.2,50.3c2.3-2.5,4.9-4.2,7.9-5.1c6.3-2,12.3-1.4,17.8,2.5c3.2,2.3,4.9,5.7,5.8,9.5c0.5,2.1,0.7,4.3,0.7,6.5
	c0,9.4,0,18.8,0,28.2c0,0.8-0.2,1.1-1,1c-2.8-0.1-5.6-0.1-8.4,0c-0.8,0-0.9-0.2-0.9-1c0-9.1,0-18.3,0-27.4c0-2.7-0.4-5.4-2.2-7.6
	c-1.5-1.9-3.6-2.7-5.9-3c-7.4-1.2-11.5,4.2-12.8,9.1c-0.3,1.3-0.5,2.7-0.5,4.1c0,8.3,0,16.6,0,24.9c0,0.8-0.2,1-1.1,1
	c-2.8,0-5.7,0-8.5,0c-0.7,0-0.9-0.1-0.9-0.8c0-15.2,0-30.4,0-45.6c0-0.6,0.1-0.9,0.8-0.9c2.8,0,5.7,0,8.5,0c0.6,0,0.8,0.1,0.8,0.7
	C242.2,47.6,242.2,48.8,242.2,50.3z"/>
<path class="st0" d="M538.2,44.2c6.3,0,11.7,1.9,16.1,6.4c2.1,2.2,3.6,4.8,4.7,7.5c0.2,0.4,0.1,0.6-0.3,0.8
	c-2.7,1.1-5.5,2.2-8.2,3.3c-0.7,0.3-0.7-0.3-0.9-0.6c-1-2.1-2.4-4-4.3-5.4c-4.8-3.6-11.9-3-16.2,1.2c-6.2,6-5.8,16.9-1.3,22.5
	c5.8,7.2,16.8,6.4,21.3-1.3c0,0,0-0.1,0.1-0.1c0.5-0.7,0.6-1.9,1.4-2.1c0.7-0.1,1.6,0.6,2.4,0.9c1.9,0.8,3.8,1.6,5.7,2.4
	c0.6,0.2,0.7,0.4,0.4,1.1c-3,7.4-8.3,11.9-16.2,13.3c-8.4,1.5-15.8-0.4-21.9-6.5c-4.3-4.4-6.5-9.7-7-15.8c-0.3-4.3,0-8.4,1.7-12.4
	C518.9,52.1,527.9,43.7,538.2,44.2z"/>
<path class="st0" d="M374.6,44.1c7.6,0.1,13,2,17.4,6.5c2.1,2.2,3.5,4.7,4.7,7.4c0.2,0.5,0.1,0.6-0.4,0.8c-2.7,1-5.4,2.1-8,3.2
	c-0.8,0.3-0.8-0.2-1-0.6c-1.4-2.8-3.2-5.1-6.1-6.5c-5.3-2.6-11.5-1.2-15.4,3.4c-5.2,6.1-4.9,16.5,0.6,22.3c5.5,6,15.6,5.1,20.1-1.7
	c0.5-0.7,0.9-1.5,1.3-2.3c0.3-0.6,0.5-0.6,1-0.4c2.5,1.1,5.1,2.1,7.7,3.2c0.6,0.2,0.6,0.5,0.4,1.1c-3.7,9-11.6,14-21.5,13.7
	c-6.5-0.2-12.2-2.4-16.8-7.1c-3.8-3.9-6-8.7-6.6-14.1c-0.6-5.2-0.5-10.5,2.1-15.1C358.8,49.7,365.8,44.2,374.6,44.1z"/>
<path class="st0" d="M488.7,68.7c0-4.1,0-8.3,0-12.4c0-0.8-0.1-1.1-1-1.1c-2.1,0.1-4.1,0-6.2,0c-0.6,0-0.8-0.2-0.8-0.8
	c0-2.7,0-5.4,0-8.1c0-0.6,0.2-0.7,0.8-0.7c2.1,0,4.1,0,6.2,0c0.8,0,1-0.1,1-1c0-4,0-8.1,0-12.1c0-0.7,0.1-1,0.9-1
	c2.9,0.1,5.8,0.1,8.7,0c0.8,0,0.9,0.3,0.9,1c0,4,0,8.1,0,12.1c0,0.8,0.2,1,1,1c3.1,0,6.1,0,9.2,0c0.9,0,1,0.3,1,1.1
	c0,2.6,0,5.1,0,7.7c0,0.7-0.1,0.9-0.9,0.9c-3.1,0-6.3,0-9.4,0c-0.7,0-0.9,0.2-0.9,0.9c0,7.1,0,14.2,0,21.3c0,0.9,0.1,1.8,0.3,2.6
	c0.5,2.7,2.9,4.3,5.6,3.8c0.6-0.1,1.2-0.3,1.9-0.4c1.4-0.4,1.4-0.4,1.9,1c0.8,2.4,1.6,4.8,2.4,7.2c0.1,0.4,0.3,0.6-0.3,0.8
	c-4.8,1.6-9.6,2.2-14.4,0.2c-4.9-2.1-7.4-6-7.7-11.2C488.6,77.1,488.8,72.9,488.7,68.7L488.7,68.7z"/>
<path class="st0" d="M412.7,50.7c3.5-3.7,7.4-6.1,12.4-6.3c2.4-0.1,4.7,0.4,7,1.2c0.5,0.2,0.6,0.4,0.4,0.9c-0.9,2.8-1.7,5.6-2.6,8.4
	c-0.2,0.6-0.5,0.5-0.9,0.4c-1.4-0.3-2.9-0.3-4.3-0.4c-5.9-0.5-10.6,4.9-11.4,9.8c-0.1,0.8-0.2,1.6-0.2,2.4c0,8.3,0,16.5,0,24.8
	c0,0.8-0.2,1.1-1,1c-2.8-0.1-5.6-0.1-8.3,0c-0.9,0-1.1-0.2-1.1-1.1c0-14.8,0-29.5,0-44.3c0-2,0-2,2-2c2.4,0,4.7,0,7.1,0
	c0.8,0,1,0.2,0.9,1C412.6,47.9,412.7,49.2,412.7,50.7z"/>
<path class="st0" d="M293.6,69.2c0,7.6,0,15.2,0,22.8c0,0.8-0.1,1-1,1c-2.9-0.1-5.8-0.1-8.7,0c-0.7,0-0.9-0.2-0.9-0.9
	c0-15.2,0-30.4,0-45.6c0-0.6,0.2-0.8,0.8-0.8c2.9,0,5.8,0,8.8,0c0.8,0,0.9,0.2,0.9,0.9C293.6,54.1,293.6,61.7,293.6,69.2z"/>
<path class="st0" d="M295.4,30.9c0,3.2-2.4,6.9-6.9,7c-4.6,0-7.1-3.8-7-7.1c0-3.9,3.2-7,7-6.9C292.3,23.9,295.4,27,295.4,30.9
	L295.4,30.9z"/>
<path class="st0" d="M475.9,64.4c0-1.4-0.1-2.7-0.3-4.1c-0.9-6.1-4-10.7-9.5-13.6c-4-2.1-8.4-2.7-12.8-2.5
	c-7.4,0.3-13.3,3.3-17.6,9.4c-0.4,0.6-0.3,0.8,0.2,1.2c2.5,1.5,5,3,7.4,4.6c0.5,0.3,0.7,0.2,1-0.2c0.9-1.1,1.9-2.1,3-3
	c5.1-4,12.7-3.2,16.6,1.7c1.5,1.9,2.2,4.4,1.7,6.3c-0.8-0.5-1.6-0.9-2.4-1.3c-3.5-1.3-7.2-1.5-10.9-1.3c-4.5,0.2-8.6,1.3-12.4,3.9
	c-7.8,5.3-7.7,16.2-3.1,21.9c3.4,4.2,7.8,6.4,13.1,6.9c6.2,0.6,11.5-1.1,15.8-6.2c0,1.5,0,2.8,0,4c0,0.7,0.2,0.9,0.9,0.9
	c2.7,0,5.4-0.1,8.1,0c0.9,0,1.1-0.2,1.1-1.1C475.9,82.7,475.9,73.5,475.9,64.4z M448.4,83.9c-4.9-2.5-5.3-7.9-1-11.2
	c2.5-1.9,5.5-2.5,8.1-2.4c3.6,0,6.6,0.4,9.4,2.1c0.5,0.3,0.9,0.7,0.8,1.4C465.4,80.7,456.2,87.9,448.4,83.9z"/>
</svg>
