<svg xmlns="http://www.w3.org/2000/svg" viewBox="0 0 128 128"><path d="M107.1 56.5h-6.9V37.8c0-5-4.4-9.4-9.4-9.4H72.1v-7.5C71.5 14 65.9 9 59.6 9c-6.9 0-11.9 5-11.9 11.9v6.9H29c-5.6 0-10 4.4-10 10v18.1h6.9C32.8 55.9 39 61.5 39 69c0 6.9-5.6 13.1-13.1 13.1H19v18.1c0 4.4 4.4 8.8 9.4 8.8h18.1v-6.9c0-6.9 5.6-13.1 13.1-13.1 6.9 0 13.1 5.6 13.1 13.1v6.9h18.1c5 0 9.4-4.4 9.4-9.4V80.9h6.9c6.9 0 11.9-5 11.9-11.9 0-7.5-5-12.5-11.9-12.5zM65.7 82.3h-5.5c-10.2 0-14.7-5.2-15.1-5.7l6.8-6.6c.1.1 2.4 2.6 8.3 2.6h1.3c3 0 6.2-.4 6.2-2.1 0-1.9-5.2-2.8-7.7-3.1-3.1-.4-6.3-.9-9.1-2.2-1.8-.9-3.3-2.1-4.3-3.6-1.2-1.7-1.8-3.7-1.8-5.9 0-7.2 7.3-11.9 17.9-11.9h1.8c6.2 0 11.3 2.5 15.4 7.2l-6.7 6.5c-2.2-2.7-4.9-3.9-8.5-3.9h-.4c-1.9 0-6.2-.4-6.2 2.1 0 1.8 4.9 2.6 7.4 2.9 3.1.4 6.5 1 9.2 2.2 1.8.9 3.3 2.1 4.4 3.7 1.1 1.7 1.8 3.8 1.8 6.1 0 9.9-11.3 11.7-15.2 11.7z" fill="#fff"/></svg>